<svg width="32" height="32" viewBox="0 0 32 32" fill="none" xmlns="http://www.w3.org/2000/svg">
  <rect width="32" height="32" rx="8" fill="#0d1b3e"/>
  <path d="M4 10 L4 9 C4 7.34 5.34 6 7 6 C8.66 6 10 7.34 10 9 L10 10 L18 10 L18 22 L10 22 L10 23 C10 24.66 8.66 26 7 26 C5.34 26 4 24.66 4 23 L4 22 L2 22 L2 10 Z" fill="#1a2d5a"/>
  <rect x="18" y="11" width="14" height="10" rx="4" fill="#2d8ef5"/>
  <circle cx="22" cy="16" r="1.8" fill="white" opacity="0.95"/>
  <circle cx="28" cy="16" r="1.8" fill="white" opacity="0.95"/>
  <path d="M21 19.5 Q25 22 29 19.5" stroke="white" strokeWidth="1.2" strokeLinecap="round" fill="none"/>
</svg>
